<mxfile host="app.diagrams.net" modified="2023-11-05T11:31:24.543Z" agent="Mozilla/5.0 (Windows NT 10.0; Win64; x64; rv:109.0) Gecko/20100101 Firefox/119.0" etag="ObNiq9--BD34FyiinXUX" version="22.0.8" type="github">
  <diagram name="Page-1" id="kdXOE15zgvXjreJDdAsB">
    <mxGraphModel dx="2074" dy="1134" grid="1" gridSize="10" guides="1" tooltips="1" connect="1" arrows="1" fold="1" page="1" pageScale="1" pageWidth="827" pageHeight="1169" math="0" shadow="0">
      <root>
        <mxCell id="0" />
        <mxCell id="1" parent="0" />
        <mxCell id="NUmmN0Gwa0l5Ee_yNgIQ-20" value="&lt;h1&gt;Legend&lt;/h1&gt;&lt;p&gt;- Authenticate(username, PWD_hash) returns cookie with a set lifetime&lt;br&gt;&lt;br&gt;- Get_All_Events(filter, page) returns list of events, filter will be the date filter, page will be the page&#39;s number, actual number returned will be the result of page * X where X is a constant of how many events are displayed on a page&lt;br&gt;&lt;br&gt;- Get_My_Events(session_id, page) returns list of events&lt;br&gt;&lt;br&gt;- Create_User(username, PWD_hash) creates user in database, sends user back to login screen&lt;/p&gt;&lt;p&gt;- Create_Event(Name, Location, Start_Date, End_Date, Description) - creates new event&lt;br&gt;&lt;/p&gt;&lt;p&gt;- SendMessage(session_id, event_id, message) creates a message for other users to view in a select event&lt;br&gt;&lt;br&gt;- Get_Specific_Event(event_id) returns a page with all the public info for an event&lt;br&gt;&lt;br&gt;- Get_My_Profile(user_id) returns a page with all the relevant profile info (for now only username ? )&lt;br&gt;&lt;/p&gt;&lt;p&gt;- Sign_Up_For_Event(user_id, event_id) signs the user up for an event&lt;br&gt;&lt;/p&gt;" style="text;html=1;strokeColor=none;fillColor=none;spacing=5;spacingTop=-20;whiteSpace=wrap;overflow=hidden;rounded=0;" parent="1" vertex="1">
          <mxGeometry x="25" y="750" width="720" height="380" as="geometry" />
        </mxCell>
        <mxCell id="gTqMQ-U4zcdlG1qO-_d0-53" value="&lt;font style=&quot;font-size: 16px;&quot;&gt;API&lt;/font&gt;" style="rounded=0;whiteSpace=wrap;html=1;" parent="1" vertex="1">
          <mxGeometry x="25" y="100" width="670" height="40" as="geometry" />
        </mxCell>
        <mxCell id="gTqMQ-U4zcdlG1qO-_d0-54" value="&lt;font style=&quot;font-size: 14px;&quot;&gt;Name&lt;/font&gt;" style="rounded=0;whiteSpace=wrap;html=1;" parent="1" vertex="1">
          <mxGeometry x="25" y="140" width="200" height="40" as="geometry" />
        </mxCell>
        <mxCell id="gTqMQ-U4zcdlG1qO-_d0-55" value="&lt;font style=&quot;font-size: 14px;&quot;&gt;Method&lt;/font&gt;" style="rounded=0;whiteSpace=wrap;html=1;" parent="1" vertex="1">
          <mxGeometry x="225" y="140" width="110" height="40" as="geometry" />
        </mxCell>
        <mxCell id="gTqMQ-U4zcdlG1qO-_d0-56" value="&lt;font style=&quot;font-size: 14px;&quot;&gt;Endpoint&lt;/font&gt;" style="rounded=0;whiteSpace=wrap;html=1;" parent="1" vertex="1">
          <mxGeometry x="335" y="140" width="170" height="40" as="geometry" />
        </mxCell>
        <mxCell id="gTqMQ-U4zcdlG1qO-_d0-58" value="&lt;font style=&quot;font-size: 14px;&quot;&gt;Description&lt;br&gt;&lt;/font&gt;" style="rounded=0;whiteSpace=wrap;html=1;" parent="1" vertex="1">
          <mxGeometry x="505" y="140" width="190" height="40" as="geometry" />
        </mxCell>
        <mxCell id="gTqMQ-U4zcdlG1qO-_d0-59" value="Authenticate" style="rounded=0;whiteSpace=wrap;html=1;" parent="1" vertex="1">
          <mxGeometry x="25" y="180" width="200" height="40" as="geometry" />
        </mxCell>
        <mxCell id="gTqMQ-U4zcdlG1qO-_d0-60" value="POST" style="rounded=0;whiteSpace=wrap;html=1;" parent="1" vertex="1">
          <mxGeometry x="225" y="180" width="110" height="40" as="geometry" />
        </mxCell>
        <mxCell id="gTqMQ-U4zcdlG1qO-_d0-61" value="/." style="rounded=0;whiteSpace=wrap;html=1;" parent="1" vertex="1">
          <mxGeometry x="335" y="180" width="170" height="40" as="geometry" />
        </mxCell>
        <mxCell id="gTqMQ-U4zcdlG1qO-_d0-62" value="Authenticates the user" style="rounded=0;whiteSpace=wrap;html=1;" parent="1" vertex="1">
          <mxGeometry x="505" y="180" width="190" height="40" as="geometry" />
        </mxCell>
        <mxCell id="gTqMQ-U4zcdlG1qO-_d0-63" value="Get_All_Events" style="rounded=0;whiteSpace=wrap;html=1;" parent="1" vertex="1">
          <mxGeometry x="25" y="220" width="200" height="40" as="geometry" />
        </mxCell>
        <mxCell id="gTqMQ-U4zcdlG1qO-_d0-64" value="GET" style="rounded=0;whiteSpace=wrap;html=1;" parent="1" vertex="1">
          <mxGeometry x="225" y="220" width="110" height="40" as="geometry" />
        </mxCell>
        <mxCell id="gTqMQ-U4zcdlG1qO-_d0-65" value="/." style="rounded=0;whiteSpace=wrap;html=1;" parent="1" vertex="1">
          <mxGeometry x="335" y="220" width="170" height="40" as="geometry" />
        </mxCell>
        <mxCell id="gTqMQ-U4zcdlG1qO-_d0-66" value="Gets Filters" style="rounded=0;whiteSpace=wrap;html=1;" parent="1" vertex="1">
          <mxGeometry x="505" y="220" width="190" height="40" as="geometry" />
        </mxCell>
        <mxCell id="gTqMQ-U4zcdlG1qO-_d0-67" value="Get_My_Events" style="rounded=0;whiteSpace=wrap;html=1;" parent="1" vertex="1">
          <mxGeometry x="25" y="260" width="200" height="40" as="geometry" />
        </mxCell>
        <mxCell id="gTqMQ-U4zcdlG1qO-_d0-68" value="GET" style="rounded=0;whiteSpace=wrap;html=1;" parent="1" vertex="1">
          <mxGeometry x="225" y="260" width="110" height="40" as="geometry" />
        </mxCell>
        <mxCell id="gTqMQ-U4zcdlG1qO-_d0-69" value="/user" style="rounded=0;whiteSpace=wrap;html=1;" parent="1" vertex="1">
          <mxGeometry x="335" y="260" width="170" height="40" as="geometry" />
        </mxCell>
        <mxCell id="gTqMQ-U4zcdlG1qO-_d0-70" value="gets events made by user" style="rounded=0;whiteSpace=wrap;html=1;" parent="1" vertex="1">
          <mxGeometry x="505" y="260" width="190" height="40" as="geometry" />
        </mxCell>
        <mxCell id="gTqMQ-U4zcdlG1qO-_d0-71" value="Create_User" style="rounded=0;whiteSpace=wrap;html=1;" parent="1" vertex="1">
          <mxGeometry x="25" y="300" width="200" height="40" as="geometry" />
        </mxCell>
        <mxCell id="gTqMQ-U4zcdlG1qO-_d0-72" value="POST" style="rounded=0;whiteSpace=wrap;html=1;" parent="1" vertex="1">
          <mxGeometry x="225" y="300" width="110" height="40" as="geometry" />
        </mxCell>
        <mxCell id="gTqMQ-U4zcdlG1qO-_d0-73" value="/user" style="rounded=0;whiteSpace=wrap;html=1;" parent="1" vertex="1">
          <mxGeometry x="335" y="300" width="170" height="40" as="geometry" />
        </mxCell>
        <mxCell id="gTqMQ-U4zcdlG1qO-_d0-74" value="Creates user in the database" style="rounded=0;whiteSpace=wrap;html=1;" parent="1" vertex="1">
          <mxGeometry x="505" y="300" width="190" height="40" as="geometry" />
        </mxCell>
        <mxCell id="gTqMQ-U4zcdlG1qO-_d0-76" value="Send_Message" style="rounded=0;whiteSpace=wrap;html=1;" parent="1" vertex="1">
          <mxGeometry x="25" y="420" width="200" height="40" as="geometry" />
        </mxCell>
        <mxCell id="gTqMQ-U4zcdlG1qO-_d0-77" value="PUT" style="rounded=0;whiteSpace=wrap;html=1;" parent="1" vertex="1">
          <mxGeometry x="225" y="420" width="110" height="40" as="geometry" />
        </mxCell>
        <mxCell id="gTqMQ-U4zcdlG1qO-_d0-78" value="/event" style="rounded=0;whiteSpace=wrap;html=1;" parent="1" vertex="1">
          <mxGeometry x="335" y="420" width="170" height="40" as="geometry" />
        </mxCell>
        <mxCell id="gTqMQ-U4zcdlG1qO-_d0-79" value="Creates a message in the event" style="rounded=0;whiteSpace=wrap;html=1;" parent="1" vertex="1">
          <mxGeometry x="505" y="420" width="190" height="40" as="geometry" />
        </mxCell>
        <mxCell id="gTqMQ-U4zcdlG1qO-_d0-80" value="Get_Specific_Event" style="rounded=0;whiteSpace=wrap;html=1;" parent="1" vertex="1">
          <mxGeometry x="25" y="340" width="200" height="40" as="geometry" />
        </mxCell>
        <mxCell id="gTqMQ-U4zcdlG1qO-_d0-81" value="GET" style="rounded=0;whiteSpace=wrap;html=1;" parent="1" vertex="1">
          <mxGeometry x="225" y="340" width="110" height="40" as="geometry" />
        </mxCell>
        <mxCell id="gTqMQ-U4zcdlG1qO-_d0-82" value="/event" style="rounded=0;whiteSpace=wrap;html=1;" parent="1" vertex="1">
          <mxGeometry x="335" y="340" width="170" height="40" as="geometry" />
        </mxCell>
        <mxCell id="gTqMQ-U4zcdlG1qO-_d0-83" value="Gets info about specific event" style="rounded=0;whiteSpace=wrap;html=1;" parent="1" vertex="1">
          <mxGeometry x="505" y="340" width="190" height="40" as="geometry" />
        </mxCell>
        <mxCell id="gTqMQ-U4zcdlG1qO-_d0-84" value="Get_My_Profile" style="rounded=0;whiteSpace=wrap;html=1;" parent="1" vertex="1">
          <mxGeometry x="25" y="460" width="200" height="40" as="geometry" />
        </mxCell>
        <mxCell id="gTqMQ-U4zcdlG1qO-_d0-85" value="GET" style="rounded=0;whiteSpace=wrap;html=1;" parent="1" vertex="1">
          <mxGeometry x="225" y="460" width="110" height="40" as="geometry" />
        </mxCell>
        <mxCell id="gTqMQ-U4zcdlG1qO-_d0-86" value="/user" style="rounded=0;whiteSpace=wrap;html=1;" parent="1" vertex="1">
          <mxGeometry x="335" y="460" width="170" height="40" as="geometry" />
        </mxCell>
        <mxCell id="gTqMQ-U4zcdlG1qO-_d0-87" value="Info about profile" style="rounded=0;whiteSpace=wrap;html=1;" parent="1" vertex="1">
          <mxGeometry x="505" y="460" width="190" height="40" as="geometry" />
        </mxCell>
        <mxCell id="gTqMQ-U4zcdlG1qO-_d0-88" value="Sign_Up_For_Event" style="rounded=0;whiteSpace=wrap;html=1;" parent="1" vertex="1">
          <mxGeometry x="25" y="500" width="200" height="40" as="geometry" />
        </mxCell>
        <mxCell id="gTqMQ-U4zcdlG1qO-_d0-89" value="POST" style="rounded=0;whiteSpace=wrap;html=1;" parent="1" vertex="1">
          <mxGeometry x="225" y="500" width="110" height="40" as="geometry" />
        </mxCell>
        <mxCell id="gTqMQ-U4zcdlG1qO-_d0-90" value="/event" style="rounded=0;whiteSpace=wrap;html=1;" parent="1" vertex="1">
          <mxGeometry x="335" y="500" width="170" height="40" as="geometry" />
        </mxCell>
        <mxCell id="gTqMQ-U4zcdlG1qO-_d0-91" value="Signs the user up for event" style="rounded=0;whiteSpace=wrap;html=1;" parent="1" vertex="1">
          <mxGeometry x="505" y="500" width="190" height="40" as="geometry" />
        </mxCell>
        <mxCell id="tiWxyCB3xI3t29KhVKYj-1" value="Create_Event" style="rounded=0;whiteSpace=wrap;html=1;" parent="1" vertex="1">
          <mxGeometry x="25" y="380" width="200" height="40" as="geometry" />
        </mxCell>
        <mxCell id="tiWxyCB3xI3t29KhVKYj-2" value="POST" style="rounded=0;whiteSpace=wrap;html=1;" parent="1" vertex="1">
          <mxGeometry x="225" y="380" width="110" height="40" as="geometry" />
        </mxCell>
        <mxCell id="tiWxyCB3xI3t29KhVKYj-3" value="/event" style="rounded=0;whiteSpace=wrap;html=1;" parent="1" vertex="1">
          <mxGeometry x="335" y="380" width="170" height="40" as="geometry" />
        </mxCell>
        <mxCell id="tiWxyCB3xI3t29KhVKYj-4" value="Creates event" style="rounded=0;whiteSpace=wrap;html=1;" parent="1" vertex="1">
          <mxGeometry x="505" y="380" width="190" height="40" as="geometry" />
        </mxCell>
        <mxCell id="8GqU1_TRkkm2RKMUggbN-2" value="&lt;h1&gt;Create_Event JSON structure&lt;br&gt;&lt;/h1&gt;&lt;p&gt;{&lt;br&gt;&lt;span style=&quot;white-space: pre;&quot;&gt;&#x9;&lt;/span&gt;event_name: &quot;some string&quot;&lt;br&gt;&lt;span style=&quot;white-space: pre;&quot;&gt;&#x9;&lt;/span&gt;location: &quot;some string&quot;&lt;br&gt;&lt;span style=&quot;white-space: pre;&quot;&gt;&#x9;&lt;/span&gt;start_date: &quot;some string&quot;&lt;br&gt;&lt;span style=&quot;white-space: pre;&quot;&gt;&#x9;&lt;/span&gt;end_date: &quot;some string&quot;&lt;br&gt;&lt;span style=&quot;white-space: pre;&quot;&gt;&#x9;&lt;/span&gt;description: &quot;some string&quot;&lt;br&gt;}&lt;br&gt;&lt;/p&gt;" style="text;html=1;strokeColor=none;fillColor=none;spacing=5;spacingTop=-20;whiteSpace=wrap;overflow=hidden;rounded=0;" vertex="1" parent="1">
          <mxGeometry x="25" y="570" width="505" height="160" as="geometry" />
        </mxCell>
      </root>
    </mxGraphModel>
  </diagram>
</mxfile>
